<svg width="1484" height="1010" viewBox="0 0 1484 1010" fill="none" xmlns="http://www.w3.org/2000/svg">
<g opacity="0.05">
<path d="M1242.2 272.4H1250.1L1292.8 315H1322.1" stroke="black" stroke-miterlimit="10"/>
<path d="M126.2 30L155.6 0.599976H265.6" stroke="black" stroke-miterlimit="10"/>
<path d="M1299.8 61.9H1280.7L1249.1 30.3H1045.1" stroke="black" stroke-miterlimit="10"/>
<path d="M809.3 722H792L759.4 689.4" stroke="black" stroke-miterlimit="10"/>
<path d="M809.3 722H792L759.4 689.4" stroke="black" stroke-miterlimit="10"/>
<path d="M809.3 722H792L759.4 689.4" stroke="black" stroke-miterlimit="10"/>
<path d="M448.4 917.3H431.1L398.5 884.7" stroke="black" stroke-miterlimit="10"/>
<path d="M152.7 832.1H96.2998L56.7998 792.6" stroke="black" stroke-miterlimit="10"/>
<path d="M1483.4 823.2V879.7L1443.9 919.2" stroke="black" stroke-miterlimit="10"/>
<path d="M809.4 704.3H865.8L905.3 743.8" stroke="black" stroke-miterlimit="10"/>
<path d="M582 274.2H449.8L430.2 293.7H370.2" stroke="black" stroke-miterlimit="10"/>
<path d="M1174.1 927.1H952" stroke="black" stroke-miterlimit="10"/>
<path d="M609.4 905.1H448.4" stroke="black" stroke-miterlimit="10"/>
<path d="M819.1 254.1C815.9 254.1 813.3 256.7 813.3 259.9C813.3 263.1 815.9 265.7 819.1 265.7C822.3 265.7 824.9 263.1 824.9 259.9C824.9 256.7 822.3 254.1 819.1 254.1Z" stroke="black" stroke-miterlimit="10"/>
<path d="M863.2 254.1C860 254.1 857.4 256.7 857.4 259.9C857.4 263.1 860 265.7 863.2 265.7C866.4 265.7 869 263.1 869 259.9C869 256.7 866.4 254.1 863.2 254.1Z" stroke="black" stroke-miterlimit="10"/>
<path d="M946.1 519.8C942.9 519.8 940.3 522.4 940.3 525.6C940.3 528.8 942.9 531.4 946.1 531.4C949.3 531.4 951.9 528.8 951.9 525.6C952 522.4 949.4 519.8 946.1 519.8Z" stroke="black" stroke-miterlimit="10"/>
<path d="M863.2 65.3C860 65.3 857.4 67.9 857.4 71.1C857.4 74.3 860 76.9 863.2 76.9C866.4 76.9 869 74.3 869 71.1C869 67.9 866.4 65.3 863.2 65.3Z" stroke="black" stroke-miterlimit="10"/>
<path d="M857.3 259.9H824.9" stroke="black" stroke-miterlimit="10"/>
<path d="M343.7 159.9C340.5 159.9 337.9 162.5 337.9 165.7C337.9 168.9 340.5 171.5 343.7 171.5C346.9 171.5 349.5 168.9 349.5 165.7C349.5 162.5 346.9 159.9 343.7 159.9Z" stroke="black" stroke-miterlimit="10"/>
<path d="M387.8 159.9C384.6 159.9 382 162.5 382 165.7C382 168.9 384.6 171.5 387.8 171.5C391 171.5 393.6 168.9 393.6 165.7C393.6 162.5 391 159.9 387.8 159.9Z" stroke="black" stroke-miterlimit="10"/>
<path d="M382 165.7H349.5" stroke="black" stroke-miterlimit="10"/>
<path d="M84.9999 372.7C82.6999 375 82.6999 378.7 84.9999 381C87.2999 383.3 90.9999 383.3 93.2999 381C95.5999 378.7 95.5999 375 93.2999 372.7C90.9999 370.4 87.2999 370.4 84.9999 372.7Z" stroke="black" stroke-miterlimit="10"/>
<path d="M116.2 341.5C113.9 343.8 113.9 347.5 116.2 349.8C118.5 352.1 122.2 352.1 124.5 349.8C126.8 347.5 126.8 343.8 124.5 341.5C122.2 339.2 118.5 339.2 116.2 341.5Z" stroke="black" stroke-miterlimit="10"/>
<path d="M116.2 349.8L93.2998 372.7" stroke="black" stroke-miterlimit="10"/>
<path d="M1243.9 613.2C1240.7 613.2 1238.1 615.8 1238.1 619C1238.1 622.2 1240.7 624.8 1243.9 624.8C1247.1 624.8 1249.7 622.2 1249.7 619C1249.7 615.9 1247.1 613.2 1243.9 613.2Z" stroke="black" stroke-miterlimit="10"/>
<path d="M1288 613.2C1284.8 613.2 1282.2 615.8 1282.2 619C1282.2 622.2 1284.8 624.8 1288 624.8C1291.2 624.8 1293.8 622.2 1293.8 619C1293.8 615.9 1291.2 613.2 1288 613.2Z" stroke="black" stroke-miterlimit="10"/>
<path d="M1282.2 619.1H1249.7" stroke="black" stroke-miterlimit="10"/>
<path d="M1221.8 966.8C1218.6 966.8 1216 969.4 1216 972.6C1216 975.8 1218.6 978.4 1221.8 978.4C1225 978.4 1227.6 975.8 1227.6 972.6C1227.6 969.4 1225 966.8 1221.8 966.8Z" stroke="black" stroke-miterlimit="10"/>
<path d="M1265.9 966.8C1262.7 966.8 1260.1 969.4 1260.1 972.6C1260.1 975.8 1262.7 978.4 1265.9 978.4C1269.1 978.4 1271.7 975.8 1271.7 972.6C1271.8 969.4 1269.2 966.8 1265.9 966.8Z" stroke="black" stroke-miterlimit="10"/>
<path d="M1260.1 972.7H1227.6" stroke="black" stroke-miterlimit="10"/>
<path d="M237.5 634.6C237.5 631.4 234.9 628.8 231.7 628.8C228.5 628.8 225.9 631.4 225.9 634.6C225.9 637.8 228.5 640.4 231.7 640.4C234.9 640.5 237.5 637.9 237.5 634.6Z" stroke="black" stroke-miterlimit="10"/>
<path d="M237.5 678.7C237.5 675.5 234.9 672.9 231.7 672.9C228.5 672.9 225.9 675.5 225.9 678.7C225.9 681.9 228.5 684.5 231.7 684.5C234.9 684.6 237.5 682 237.5 678.7Z" stroke="black" stroke-miterlimit="10"/>
<path d="M231.6 672.9V640.5" stroke="black" stroke-miterlimit="10"/>
<path d="M164.8 972.9C167.1 975.2 170.8 975.2 173.1 972.9C175.4 970.6 175.4 966.9 173.1 964.6C170.8 962.3 167.1 962.3 164.8 964.6C162.5 966.9 162.5 970.6 164.8 972.9Z" stroke="black" stroke-miterlimit="10"/>
<path d="M73.2999 502.1C75.5999 504.4 79.2999 504.4 81.5999 502.1C83.8999 499.8 83.8999 496.1 81.5999 493.8C79.2999 491.5 75.5999 491.5 73.2999 493.8C71.0999 496.2 71.0999 499.8 73.2999 502.1Z" stroke="black" stroke-miterlimit="10"/>
<path d="M141.8 941.7L164.8 964.6" stroke="black" stroke-miterlimit="10"/>
<path d="M1080.8 433C1083.1 430.7 1083.1 427 1080.8 424.7C1078.5 422.4 1074.8 422.4 1072.5 424.7C1070.2 427 1070.2 430.7 1072.5 433C1074.8 435.3 1078.5 435.3 1080.8 433Z" stroke="black" stroke-miterlimit="10"/>
<path d="M1049.6 464.2C1051.9 461.9 1051.9 458.2 1049.6 455.9C1047.3 453.6 1043.6 453.6 1041.3 455.9C1039 458.2 1039 461.9 1041.3 464.2C1043.6 466.5 1047.3 466.5 1049.6 464.2Z" stroke="black" stroke-miterlimit="10"/>
<path d="M1049.6 455.9L1072.6 433" stroke="black" stroke-miterlimit="10"/>
<path d="M647.1 822.6C645.3 822.6 643.9 824 643.9 825.8C643.9 827.6 645.3 829 647.1 829C648.9 829 650.3 827.6 650.3 825.8C650.3 824.1 648.8 822.6 647.1 822.6Z" stroke="black" stroke-miterlimit="10"/>
<path d="M907.6 742.8C905.8 742.8 904.4 744.2 904.4 746C904.4 747.8 905.8 749.2 907.6 749.2C909.4 749.2 910.8 747.8 910.8 746C910.8 744.2 909.3 742.8 907.6 742.8Z" stroke="black" stroke-miterlimit="10"/>
<path d="M806.1 701.1C804.3 701.1 802.9 702.5 802.9 704.3C802.9 706.1 804.3 707.5 806.1 707.5C807.9 707.5 809.3 706.1 809.3 704.3C809.3 702.5 807.8 701.1 806.1 701.1Z" stroke="black" stroke-miterlimit="10"/>
<path d="M757.4 683.9C755.6 683.9 754.2 685.3 754.2 687.1C754.2 688.9 755.6 690.3 757.4 690.3C759.2 690.3 760.6 688.9 760.6 687.1C760.6 685.3 759.2 683.9 757.4 683.9Z" stroke="black" stroke-miterlimit="10"/>
<path d="M812.5 718.8C810.7 718.8 809.3 720.2 809.3 722C809.3 723.8 810.7 725.2 812.5 725.2C814.3 725.2 815.7 723.8 815.7 722C815.7 720.2 814.2 718.8 812.5 718.8Z" stroke="black" stroke-miterlimit="10"/>
<path d="M608.2 822.6C606.4 822.6 605 824 605 825.8C605 827.6 606.4 829 608.2 829C610 829 611.4 827.6 611.4 825.8C611.4 824.1 610 822.6 608.2 822.6Z" stroke="black" stroke-miterlimit="10"/>
<path d="M643.9 825.8H611.4" stroke="black" stroke-miterlimit="10"/>
<path d="M582.6 368.4V382.7" stroke="black" stroke-miterlimit="10"/>
<path d="M589.7 375.5H575.5" stroke="black" stroke-miterlimit="10"/>
<path d="M126.2 624.4V638.7" stroke="black" stroke-miterlimit="10"/>
<path d="M133.3 631.5H119" stroke="black" stroke-miterlimit="10"/>
<path d="M200.9 174.7L190.8 184.8" stroke="black" stroke-miterlimit="10"/>
<path d="M200.9 184.8L190.8 174.7" stroke="black" stroke-miterlimit="10"/>
<path d="M1196.2 864.5V878.8" stroke="black" stroke-miterlimit="10"/>
<path d="M1203.4 871.6H1189.1" stroke="black" stroke-miterlimit="10"/>
<path d="M653.5 598.2L643.4 608.3" stroke="black" stroke-miterlimit="10"/>
<path d="M653.5 608.3L643.4 598.2" stroke="black" stroke-miterlimit="10"/>
<path d="M1327.1 777.2L1317 787.3" stroke="black" stroke-miterlimit="10"/>
<path d="M1327.1 787.3L1317 777.2" stroke="black" stroke-miterlimit="10"/>
<path d="M10.4999 999.1L0.399902 1009.2" stroke="black" stroke-miterlimit="10"/>
<path d="M10.4999 1009.2L0.399902 999.1" stroke="black" stroke-miterlimit="10"/>
</g>
</svg>
