<svg width="196" height="1080" viewBox="0 0 196 1080" fill="none" xmlns="http://www.w3.org/2000/svg">
<g opacity="0.05">
<path d="M1.5 652.4V805.2C1.5 806.9 2.1 808.5 3.4 809.6L107.5 914C108.7 915.1 109.4 916.7 109.4 918.4V1000.3C109.4 1002 110.1 1003.7 111.3 1004.8L120.9 1014.5C122.1 1015.7 122.8 1017.3 122.8 1019V1080.1" stroke="black" stroke-miterlimit="10"/>
<path d="M86.3999 1080V944.4C86.3999 942.7 85.8 941.1 84.5 940L12.7 868.5" stroke="black" stroke-miterlimit="10"/>
<path d="M11.5 892.7L68.2 947.4C69.5 948.6 70.2 950.2 70.2 951.8V1015C70.2 1016.7 69.5 1018.3 68.2 1019.4L57.4 1030C56.1 1031.2 55.4 1032.8 55.4 1034.4V1080" stroke="black" stroke-miterlimit="10"/>
<path d="M110.5 969.1L168.2 911.1C169.4 910 170.1 908.4 170.1 906.7V813.9C170.1 812.3 170.7 810.7 171.9 809.6L187.1 794.3C188.3 793.2 188.9 791.6 188.9 790V721.6C188.9 719.9 188.3 718.3 187 717.2L126 655.9C124.8 654.7 124.1 653.1 124.1 651.5V590.3" stroke="black" stroke-miterlimit="10"/>
<path d="M164.2 914.3L130.2 880.4C129 879.3 128.3 877.7 128.3 876V691.6C128.3 689.9 128.9 688.3 130.2 687.2L143.9 673.5" stroke="black" stroke-miterlimit="10"/>
<path d="M145.8 893.8V744C145.8 742.3 145.1 740.7 143.9 739.6L128.8 724.7" stroke="black" stroke-miterlimit="10"/>
<path d="M137.7 734.7V801.2C137.7 802.9 138.3 804.5 139.5 805.6L144.8 811" stroke="black" stroke-miterlimit="10"/>
<path d="M30.2999 753.7L35.2999 758.8C35.4999 759.1 35.4999 759.5 35.2999 759.8L30.2999 764.9C29.9999 765.2 29.5999 765.2 29.2999 764.9C29.1999 764.7 29.0999 764.5 29.0999 764.3V753.8C29.0999 753.5 29.8999 753.3 30.2999 753.7Z" fill="black"/>
<path d="M183.1 757.7L178.1 751.8C177.9 751.4 177.9 751 178.1 750.7L183.1 744.8C183.5 744.3 184.3 744.6 184.3 745.5V757.6C184.2 758 183.5 758.2 183.1 757.7Z" fill="black"/>
<path d="M35.8998 777.5L30.1998 772.4C29.9998 772.1 29.9998 771.7 30.1998 771.4L35.8998 766.3C36.1998 766 36.6998 766 36.9998 766.4C37.0998 766.5 37.1998 766.7 37.1998 766.9V777.4C37.1998 777.7 36.2998 777.9 35.8998 777.5Z" fill="black"/>
<path d="M129.6 949.3L157.4 976.7C158.6 977.8 159.3 979.4 159.3 981.1V1080" stroke="black" stroke-miterlimit="10"/>
<path d="M12.7 963.7L30.5999 982C31.7999 983.2 32.5 984.8 32.5 986.4V1080" stroke="black" stroke-miterlimit="10"/>
<path d="M87 861.3C90.5 861.3 93.3 858.5 93.3 855C93.3 851.5 90.5 848.7 87 848.7C83.5 848.7 80.7 851.5 80.7 855C80.7 858.5 83.5 861.3 87 861.3Z" stroke="black" stroke-miterlimit="10"/>
<path d="M25.9 806.5C27.1 806.2 27.9 805 27.6 803.7C27.4 802.8 26.7 802.2 25.9 802C24.7 802.3 23.9 803.5 24.2 804.7C24.4 805.6 25.1 806.3 25.9 806.5Z" stroke="black" stroke-miterlimit="10"/>
<path d="M41.8999 848V795.7C41.9999 794 41.2999 792.4 40.0999 791.3L26.1999 777C24.9999 775.8 24.3999 774.2 24.3999 772.6V589" stroke="black" stroke-miterlimit="10"/>
<path d="M127.6 829.9L108.6 811.1C107.4 810 106.7 808.4 106.7 806.8V714.4C106.7 712.7 106.1 711.2 104.8 710.1L76.1998 681.7C74.9998 680.6 74.2998 679 74.2998 677.4V544.5" stroke="black" stroke-miterlimit="10"/>
<path d="M1.49992 991.6V834.5C1.49992 833.5 2.29992 832.6 3.29992 832.6C3.79992 832.6 4.19992 832.8 4.49992 833.1L12.7999 841.7C13.2999 842.1 13.5999 842.7 13.5999 843.4V986.2C13.5999 986.6 13.3999 987.1 13.1999 987.5L7.49992 993.8C6.39992 995.4 4.29992 995.7 2.79992 994.6C1.89992 993.8 1.39992 992.7 1.49992 991.6Z" stroke="black" stroke-miterlimit="10"/>
<path d="M4.5999 992.2L9.5999 986.7C9.7999 986.4 9.7999 986 9.5999 985.6L4.5999 980.1C4.1999 979.7 3.3999 979.9 3.3999 980.7V992C3.4999 992.4 4.1999 992.6 4.5999 992.2Z" fill="black"/>
<path d="M4.5999 851.1L9.5999 845.6C9.7999 845.3 9.7999 844.9 9.5999 844.5L4.5999 839C4.1999 838.6 3.3999 838.8 3.3999 839.6V850.8C3.3999 851.1 3.7999 851.4 4.0999 851.3C4.3999 851.4 4.4999 851.2 4.5999 851.1Z" fill="black"/>
<path d="M189 954.7C192.2 954.7 194.8 952.1 194.8 948.9C194.8 945.7 192.2 943.1 189 943.1C185.8 943.1 183.2 945.7 183.2 948.9C183.1 952.1 185.7 954.7 189 954.7Z" stroke="black" stroke-miterlimit="10"/>
<path d="M162 692.8V641.1C162 639.4 162.7 637.8 164 636.7L178.9 622.4C180.2 621.3 180.9 619.7 180.9 618V513.4" stroke="black" stroke-miterlimit="10"/>
<path d="M1.5 1080V1042.8C1.5 1041.3 2.1 1039.9 3.2 1038.9L22.8 1019.7C23.9 1018.7 24.5 1017.3 24.5 1015.8V989C24.5 987.5 23.9 986.1 22.8 985.1L14.8 977.3" stroke="black" stroke-miterlimit="10"/>
<path d="M122.9 0.799988V58.5C122.9 60.2 122.2 61.8 121 63L111.4 72.7C110.1 73.8 109.4 75.5 109.5 77.2V159.1C109.5 160.8 108.8 162.4 107.6 163.5L3.2999 267.9C2.0999 269 1.3999 270.6 1.3999 272.3V652.4" stroke="black" stroke-miterlimit="10"/>
<path d="M12.7998 209L84.5998 137.5C85.8998 136.4 86.4998 134.8 86.4998 133.1V0.799988" stroke="black" stroke-miterlimit="10"/>
<path d="M55.3999 0.799988V43C55.3999 44.7 56.0999 46.3 57.3999 47.4L68.2999 57.9C69.5999 59 70.2999 60.6 70.2999 62.3V125.5C70.2999 127.2 69.5999 128.8 68.2999 129.9L11.5999 184.6" stroke="black" stroke-miterlimit="10"/>
<path d="M124.2 590.3L114.2 580.8C113.3 580 112.8 578.8 112.8 577.7V500.4C112.8 499.3 113.2 498.3 114 497.5L122.2 488.7C123.5 487.3 124.2 485.4 124.2 483.5V425.9C124.2 424.2 124.9 422.6 126.1 421.5L187.1 360.2C188.3 359.1 189 357.5 189 355.8V287.4C189 285.8 188.3 284.2 187.2 283.1L172 267.8C170.8 266.7 170.1 265.1 170.2 263.5V170.7C170.2 169 169.5 167.4 168.3 166.3L110.6 108.3" stroke="black" stroke-miterlimit="10"/>
<path d="M143.9 403.9L130.2 390.2C128.9 389.1 128.3 387.5 128.3 385.8V201.4C128.3 199.7 129 198.1 130.2 197L164.2 163.1" stroke="black" stroke-miterlimit="10"/>
<path d="M128.7 352.7L143.8 337.8C145.1 336.7 145.8 335.1 145.7 333.4V182.9" stroke="black" stroke-miterlimit="10"/>
<path d="M144.9 266.4L139.6 271.8C138.4 272.9 137.7 274.5 137.8 276.2V343.4" stroke="black" stroke-miterlimit="10"/>
<path d="M29.0999 323.5V313C29.0999 312.8 29.0999 312.6 29.2999 312.4C29.5999 312.1 29.9999 312.1 30.2999 312.4L35.2999 317.5C35.4999 317.8 35.4999 318.2 35.2999 318.5L30.2999 323.6C29.8999 324.1 29.0999 323.9 29.0999 323.5Z" fill="black"/>
<path d="M184.2 319.9V332C184.2 332.9 183.4 333.1 183 332.7L178 326.8C177.8 326.4 177.8 326 178 325.7L183 319.8C183.5 319.2 184.2 319.5 184.2 319.9Z" fill="black"/>
<path d="M37.1998 300.1V310.6C37.1998 310.8 37.0998 311 36.9998 311.1C36.6998 311.4 36.1998 311.4 35.8998 311.2L30.1998 306.1C29.9998 305.8 29.9998 305.4 30.1998 305.1L35.8998 300C36.2998 299.5 37.1998 299.7 37.1998 300.1Z" fill="black"/>
<path d="M177.9 0.799988V25.2L159.3 47V96.2C159.3 97.9 158.6 99.5 157.4 100.6L129.6 128" stroke="black" stroke-miterlimit="10"/>
<path d="M32.5 0.799988V91C32.5 92.7 31.7999 94.3 30.5999 95.4L12.7 113.7" stroke="black" stroke-miterlimit="10"/>
<path d="M80.7 222.4C80.7 225.9 83.5 228.7 87 228.7C90.5 228.7 93.3 225.9 93.3 222.4C93.3 218.9 90.5 216.1 87 216.1C83.5 216.1 80.7 219 80.7 222.4Z" stroke="black" stroke-miterlimit="10"/>
<path d="M24.2 272.7C23.9 273.9 24.7 275.2 25.9 275.4C26.8 275.2 27.4 274.5 27.6 273.7C27.9 272.5 27.1 271.2 25.9 270.9C25.1 271.1 24.4 271.8 24.2 272.7Z" stroke="black" stroke-miterlimit="10"/>
<path d="M24.3999 589V304.9C24.3999 303.3 24.9999 301.7 26.1999 300.5L40.0999 286.2C41.2999 285 41.9999 283.4 41.8999 281.8V230.2" stroke="black" stroke-miterlimit="10"/>
<path d="M74.2998 533.7V400.1C74.2998 398.5 74.9998 396.9 76.1998 395.8L104.8 367.4C106 366.3 106.7 364.7 106.7 363.1V270.7C106.7 269.1 107.4 267.5 108.6 266.4L127.6 247.6" stroke="black" stroke-miterlimit="10"/>
<path d="M2.79992 82.9C4.29992 81.8 6.39992 82.1 7.49992 83.7L13.1999 90C13.3999 90.4 13.5999 90.8 13.5999 91.3V234.1C13.4999 234.7 13.2999 235.3 12.7999 235.8L4.49992 244.4C4.19992 244.7 3.69992 244.9 3.29992 244.9C2.29992 244.9 1.49992 244 1.49992 243V85.8C1.39992 84.7 1.89992 83.6 2.79992 82.9Z" stroke="black" stroke-miterlimit="10"/>
<path d="M3.5 85.4V96.7C3.5 97.6 4.3 97.8 4.7 97.3L9.7 91.8C9.9 91.5 9.9 91.1 9.7 90.7L4.7 85.2C4.2 84.8 3.5 85 3.5 85.4Z" fill="black"/>
<path d="M4.2 226C3.9 226 3.5 226.2 3.5 226.5V237.7C3.5 238.5 4.3 238.8 4.7 238.3L9.7 232.8C9.9 232.5 9.9 232.1 9.7 231.7L4.7 226.2C4.5 226.2 4.4 226.1 4.2 226Z" fill="black"/>
<path d="M183.1 128.6C183.1 131.8 185.7 134.4 188.9 134.4C192.1 134.4 194.7 131.8 194.7 128.6C194.7 125.4 192.1 122.8 188.9 122.8C185.7 122.8 183.1 125.3 183.1 128.6Z" stroke="black" stroke-miterlimit="10"/>
<path d="M68.5 539.5C68.5 542.7 71.1 545.3 74.3 545.3C77.5 545.3 80.1 542.7 80.1 539.5C80.1 536.3 77.5 533.7 74.3 533.7C71.1 533.7 68.5 536.3 68.5 539.5Z" stroke="black" stroke-miterlimit="10"/>
<path d="M180.9 513.4V459.4C180.9 457.7 180.2 456.1 178.9 455L164 440.7C162.7 439.6 162 438 162 436.3V384" stroke="black" stroke-miterlimit="10"/>
<path d="M14.6999 100.2L22.6999 92.4C23.7999 91.4 24.3999 90 24.3999 88.5V61.6C24.3999 60.1 23.7999 58.7 22.6999 57.7L3.0999 38.5C1.9999 37.5 1.3999 36.1 1.3999 34.6V0.799988" stroke="black" stroke-miterlimit="10"/>
</g>
</svg>
