<svg width="195" height="1080" viewBox="0 0 195 1080" fill="none" xmlns="http://www.w3.org/2000/svg">
<g opacity="0.05">
<path d="M194 424.4V271.6C194 269.9 193.4 268.3 192.1 267.2L88 162.8C86.8 161.7 86.1 160.1 86.1 158.4V76.5C86.1 74.8 85.4 73.1 84.2 72L74.6 62.3C73.4 61.1 72.7 59.5 72.7 57.8V0.799988" stroke="black" stroke-miterlimit="10"/>
<path d="M109 0.799988V132.3C109 134 109.6 135.6 110.9 136.7L182.7 208.2" stroke="black" stroke-miterlimit="10"/>
<path d="M183.9 184.1L127.2 129.4C125.9 128.2 125.2 126.6 125.2 125V61.7C125.2 60 125.9 58.4 127.2 57.3L138.1 46.8C139.4 45.6 140.1 44 140.1 42.4V0.799988" stroke="black" stroke-miterlimit="10"/>
<path d="M85 107.7L27.3 165.7C26.1 166.8 25.4 168.4 25.4 170.1V262.9C25.4 264.5 24.8 266.1 23.6 267.2L8.40002 282.5C7.20002 283.6 6.59998 285.2 6.59998 286.8V355.2C6.59998 356.9 7.2 358.5 8.5 359.6L69.5 420.9C70.7 422.1 71.4 423.7 71.4 425.3V486.5" stroke="black" stroke-miterlimit="10"/>
<path d="M31.3 162.5L65.3 196.4C66.5 197.5 67.2 199.1 67.2 200.8V385.1C67.2 386.8 66.6 388.4 65.3 389.5L51.6 403.2" stroke="black" stroke-miterlimit="10"/>
<path d="M49.7 182.9V332.7C49.7 334.4 50.4 336 51.6 337.1L66.7 352" stroke="black" stroke-miterlimit="10"/>
<path d="M57.8 342.1V275.6C57.8 273.9 57.2 272.3 56 271.2L50.7 265.8" stroke="black" stroke-miterlimit="10"/>
<path d="M165.2 323.1L160.2 318C160 317.7 160 317.3 160.2 317L165.2 311.9C165.5 311.6 165.9 311.6 166.2 311.9C166.3 312.1 166.4 312.3 166.4 312.5V323C166.3 323.3 165.6 323.5 165.2 323.1Z" fill="black"/>
<path d="M12.4 319L17.4 324.9C17.6 325.3 17.6 325.7 17.4 326L12.4 331.9C12 332.4 11.2 332.1 11.2 331.2V319.1C11.2 318.8 12 318.6 12.4 319Z" fill="black"/>
<path d="M159.6 299.3L165.3 304.4C165.5 304.7 165.5 305.1 165.3 305.4L159.6 310.5C159.3 310.8 158.8 310.8 158.5 310.4C158.4 310.3 158.3 310.1 158.3 309.9V299.4C158.3 299.1 159.1 298.9 159.6 299.3Z" fill="black"/>
<path d="M65.8 127.5L38 100.1C36.8 99 36.1 97.4 36.1 95.7V0.799988" stroke="black" stroke-miterlimit="10"/>
<path d="M182.7 113.1L164.8 94.8C163.6 93.6 162.9 92 162.9 90.4V0.799988" stroke="black" stroke-miterlimit="10"/>
<path d="M108.4 215.5C104.9 215.5 102.1 218.3 102.1 221.8C102.1 225.3 104.9 228.1 108.4 228.1C111.9 228.1 114.7 225.3 114.7 221.8C114.7 218.3 111.9 215.5 108.4 215.5Z" stroke="black" stroke-miterlimit="10"/>
<path d="M169.5 270.3C168.3 270.6 167.5 271.8 167.8 273.1C168 274 168.7 274.6 169.5 274.8C170.7 274.5 171.5 273.3 171.2 272.1C171.1 271.2 170.4 270.5 169.5 270.3Z" stroke="black" stroke-miterlimit="10"/>
<path d="M153.5 228.8V281.1C153.4 282.8 154.1 284.4 155.3 285.5L169.2 299.8C170.4 301 171 302.6 171 304.2V487.8" stroke="black" stroke-miterlimit="10"/>
<path d="M67.9 246.8L86.9 265.6C88.1 266.7 88.8 268.3 88.8 269.9V362.3C88.8 364 89.4 365.5 90.7 366.6L119.3 395C120.5 396.1 121.2 397.7 121.2 399.3V532.1" stroke="black" stroke-miterlimit="10"/>
<path d="M194 85.2V242.3C194 243.3 193.2 244.2 192.2 244.2C191.7 244.2 191.3 244 191 243.7L182.7 235.1C182.2 234.7 181.9 234.1 181.9 233.4V90.7C181.9 90.3 182.1 89.8 182.3 89.4L188 83.1C189.1 81.5 191.2 81.2 192.7 82.3C193.5 83 194 84.1 194 85.2Z" stroke="black" stroke-miterlimit="10"/>
<path d="M190.8 84.6L185.8 90.1C185.6 90.4 185.6 90.8 185.8 91.2L190.8 96.7C191.2 97.1 192 96.9 192 96.1V84.8C192 84.4 191.2 84.2 190.8 84.6Z" fill="black"/>
<path d="M190.8 225.7L185.8 231.2C185.6 231.5 185.6 231.9 185.8 232.3L190.8 237.8C191.2 238.2 192 238 192 237.2V226C192 225.7 191.6 225.4 191.3 225.5C191.1 225.4 190.9 225.5 190.8 225.7Z" fill="black"/>
<path d="M6.5 122.1C3.3 122.1 0.699951 124.7 0.699951 127.9C0.699951 131.1 3.3 133.7 6.5 133.7C9.7 133.7 12.3 131.1 12.3 127.9C12.3 124.7 9.7 122.1 6.5 122.1Z" stroke="black" stroke-miterlimit="10"/>
<path d="M33.5 383.9V435.6C33.5 437.3 32.8 438.9 31.5 440L16.6 454.3C15.3 455.4 14.6 457 14.6 458.7V563.3" stroke="black" stroke-miterlimit="10"/>
<path d="M194 0.799988V33.9C194 35.4 193.4 36.8 192.3 37.8L172.7 57C171.6 58 171 59.4 171 60.9V87.7C171 89.2 171.6 90.6 172.7 91.6L180.7 99.4" stroke="black" stroke-miterlimit="10"/>
<path d="M72.6 1080V1018.3C72.6 1016.6 73.3 1015 74.5 1013.8L84.1 1004.1C85.4 1003 86.1 1001.3 86 999.6V917.7C86 916 86.7 914.4 87.9 913.3L192 808.9C193.2 807.8 193.9 806.2 193.9 804.5V424.4" stroke="black" stroke-miterlimit="10"/>
<path d="M182.7 867.8L110.9 939.3C109.6 940.4 109 942 109 943.7V1080" stroke="black" stroke-miterlimit="10"/>
<path d="M140 1080V1033.8C140 1032.1 139.3 1030.5 138 1029.4L127.1 1018.9C125.8 1017.8 125.1 1016.2 125.1 1014.5V951.3C125.1 949.6 125.8 948 127.1 946.9L183.8 892.2" stroke="black" stroke-miterlimit="10"/>
<path d="M71.2 486.5L81.2 496C82.1 496.8 82.6 498 82.6 499.1V576.4C82.6 577.5 82.2 578.5 81.4 579.3L73.2 588.1C71.9 589.5 71.2 591.4 71.2 593.3V650.9C71.2 652.6 70.5 654.2 69.3 655.3L8.30005 716.6C7.10005 717.7 6.40002 719.3 6.40002 721V789.4C6.40002 791 7.09995 792.6 8.19995 793.7L23.4 809C24.6 810.1 25.3 811.7 25.2 813.3V906C25.2 907.7 25.9 909.3 27.1 910.4L84.8 968.4" stroke="black" stroke-miterlimit="10"/>
<path d="M51.6 672.9L65.3 686.6C66.6 687.7 67.2 689.3 67.2 691V875.3C67.2 877 66.5 878.6 65.3 879.7L31.3 913.6" stroke="black" stroke-miterlimit="10"/>
<path d="M66.7 724.1L51.6 739C50.3 740.1 49.6 741.7 49.7 743.4V893.9" stroke="black" stroke-miterlimit="10"/>
<path d="M50.6 810.3L55.9 804.9C57.1 803.8 57.8 802.2 57.7 800.5V733.3" stroke="black" stroke-miterlimit="10"/>
<path d="M166.3 753.3V763.8C166.3 764 166.3 764.2 166.1 764.4C165.8 764.7 165.4 764.7 165.1 764.4L160.1 759.3C159.9 759 159.9 758.6 160.1 758.3L165.1 753.2C165.6 752.7 166.3 752.9 166.3 753.3Z" fill="black"/>
<path d="M11.2 756.9V744.8C11.2 743.9 12 743.7 12.4 744.1L17.4 750C17.6 750.4 17.6 750.8 17.4 751.1L12.4 757C12 757.5 11.2 757.3 11.2 756.9Z" fill="black"/>
<path d="M158.3 776.7V766.2C158.3 766 158.4 765.8 158.5 765.7C158.8 765.4 159.3 765.4 159.6 765.6L165.3 770.7C165.5 771 165.5 771.4 165.3 771.7L159.6 776.8C159.1 777.3 158.3 777.1 158.3 776.7Z" fill="black"/>
<path d="M35.7 1080L36.2 1029.7V980.5C36.2 978.8 36.9 977.2 38.1 976.1L65.9 948.7" stroke="black" stroke-miterlimit="10"/>
<path d="M163 1080V985.7C163 984 163.7 982.4 164.9 981.3L182.8 963" stroke="black" stroke-miterlimit="10"/>
<path d="M114.7 854.3C114.7 850.8 111.9 848 108.4 848C104.9 848 102.1 850.8 102.1 854.3C102.1 857.8 104.9 860.6 108.4 860.6C111.9 860.6 114.7 857.8 114.7 854.3Z" stroke="black" stroke-miterlimit="10"/>
<path d="M171.3 804.1C171.6 802.9 170.8 801.6 169.6 801.4C168.7 801.6 168.1 802.3 167.9 803.1C167.6 804.3 168.4 805.6 169.6 805.9C170.4 805.6 171.1 805 171.3 804.1Z" stroke="black" stroke-miterlimit="10"/>
<path d="M171.1 487.8V771.9C171.1 773.5 170.5 775.1 169.3 776.3L155.4 790.6C154.2 791.8 153.5 793.4 153.6 795V846.6" stroke="black" stroke-miterlimit="10"/>
<path d="M121.2 543.1V676.6C121.2 678.2 120.5 679.8 119.3 680.9L90.7 709.3C89.5 710.4 88.8 712 88.8 713.6V806C88.8 807.6 88.1 809.2 86.9 810.3L67.9 829.1" stroke="black" stroke-miterlimit="10"/>
<path d="M192.6 993.8C191.1 994.9 189 994.6 187.9 993L182.2 986.7C182 986.3 181.8 985.9 181.8 985.4V842.7C181.9 842.1 182.1 841.5 182.6 841L190.9 832.4C191.2 832.1 191.7 831.9 192.1 831.9C193.1 831.9 193.9 832.8 193.9 833.8V990.9C194 992.1 193.5 993.2 192.6 993.8Z" stroke="black" stroke-miterlimit="10"/>
<path d="M192 991.3V980C192 979.1 191.2 978.9 190.8 979.4L185.8 984.9C185.6 985.2 185.6 985.6 185.8 986L190.8 991.5C191.2 992 192 991.8 192 991.3Z" fill="black"/>
<path d="M191.3 850.7C191.6 850.7 192 850.5 192 850.2V839C192 838.2 191.2 837.9 190.8 838.4L185.8 843.9C185.6 844.2 185.6 844.6 185.8 845L190.8 850.5C190.9 850.6 191.1 850.7 191.3 850.7Z" fill="black"/>
<path d="M12.3 948.2C12.3 945 9.7 942.4 6.5 942.4C3.3 942.4 0.699951 945 0.699951 948.2C0.699951 951.4 3.3 954 6.5 954C9.7 954.1 12.3 951.4 12.3 948.2Z" stroke="black" stroke-miterlimit="10"/>
<path d="M127 537.3C127 534.1 124.4 531.5 121.2 531.5C118 531.5 115.4 534.1 115.4 537.3C115.4 540.5 118 543.1 121.2 543.1C124.4 543.1 127 540.5 127 537.3Z" stroke="black" stroke-miterlimit="10"/>
<path d="M14.6 563.3V617.3C14.6 619 15.3 620.6 16.6 621.7L31.5 636C32.8 637.1 33.5 638.7 33.5 640.4V692.7" stroke="black" stroke-miterlimit="10"/>
<path d="M180.7 976.5L172.7 984.3C171.6 985.3 171 986.7 171 988.2V1015C171 1016.5 171.6 1017.9 172.7 1018.9L192.3 1038.1C193.4 1039.1 194 1040.5 194 1042V1079.8" stroke="black" stroke-miterlimit="10"/>
</g>
</svg>
